<mxfile host="app.diagrams.net" modified="2022-09-25T16:52:04.560Z" agent="5.0 (Windows NT 10.0; Win64; x64) AppleWebKit/537.36 (KHTML, like Gecko) Chrome/105.0.0.0 Safari/537.36" etag="lntsv8osXexBMVhMzFQu" version="20.3.6" type="github">
  <diagram id="c_tUVglb4QlU3tGimCE_" name="페이지-1">
    <mxGraphModel dx="996" dy="608" grid="1" gridSize="10" guides="1" tooltips="1" connect="1" arrows="1" fold="1" page="1" pageScale="1" pageWidth="827" pageHeight="1169" math="0" shadow="0">
      <root>
        <mxCell id="0" />
        <mxCell id="1" parent="0" />
        <mxCell id="4lpDPO-DE4PUYxhVvUUK-22" style="edgeStyle=orthogonalEdgeStyle;rounded=0;orthogonalLoop=1;jettySize=auto;html=1;exitX=0.75;exitY=0;exitDx=0;exitDy=0;entryX=0.5;entryY=1;entryDx=0;entryDy=0;" edge="1" parent="1" source="4lpDPO-DE4PUYxhVvUUK-15" target="4lpDPO-DE4PUYxhVvUUK-21">
          <mxGeometry relative="1" as="geometry" />
        </mxCell>
        <mxCell id="4lpDPO-DE4PUYxhVvUUK-24" style="edgeStyle=orthogonalEdgeStyle;rounded=0;orthogonalLoop=1;jettySize=auto;html=1;exitX=0.25;exitY=0;exitDx=0;exitDy=0;entryX=0.5;entryY=1;entryDx=0;entryDy=0;" edge="1" parent="1" source="4lpDPO-DE4PUYxhVvUUK-15" target="4lpDPO-DE4PUYxhVvUUK-23">
          <mxGeometry relative="1" as="geometry" />
        </mxCell>
        <mxCell id="4lpDPO-DE4PUYxhVvUUK-15" value="Employee" style="whiteSpace=wrap;html=1;align=center;" vertex="1" parent="1">
          <mxGeometry x="190" y="180" width="100" height="40" as="geometry" />
        </mxCell>
        <mxCell id="4lpDPO-DE4PUYxhVvUUK-36" style="edgeStyle=orthogonalEdgeStyle;rounded=0;orthogonalLoop=1;jettySize=auto;html=1;exitX=0.25;exitY=0;exitDx=0;exitDy=0;" edge="1" parent="1" source="4lpDPO-DE4PUYxhVvUUK-17" target="4lpDPO-DE4PUYxhVvUUK-33">
          <mxGeometry relative="1" as="geometry" />
        </mxCell>
        <mxCell id="4lpDPO-DE4PUYxhVvUUK-37" style="edgeStyle=orthogonalEdgeStyle;rounded=0;orthogonalLoop=1;jettySize=auto;html=1;exitX=0.75;exitY=0;exitDx=0;exitDy=0;entryX=0.5;entryY=1;entryDx=0;entryDy=0;" edge="1" parent="1" source="4lpDPO-DE4PUYxhVvUUK-17" target="4lpDPO-DE4PUYxhVvUUK-29">
          <mxGeometry relative="1" as="geometry" />
        </mxCell>
        <mxCell id="4lpDPO-DE4PUYxhVvUUK-17" value="Customer" style="whiteSpace=wrap;html=1;align=center;" vertex="1" parent="1">
          <mxGeometry x="580" y="187" width="100" height="40" as="geometry" />
        </mxCell>
        <mxCell id="4lpDPO-DE4PUYxhVvUUK-19" value="Part" style="whiteSpace=wrap;html=1;align=center;" vertex="1" parent="1">
          <mxGeometry x="190" y="340" width="100" height="40" as="geometry" />
        </mxCell>
        <mxCell id="4lpDPO-DE4PUYxhVvUUK-43" style="edgeStyle=orthogonalEdgeStyle;rounded=0;orthogonalLoop=1;jettySize=auto;html=1;entryX=0.5;entryY=0;entryDx=0;entryDy=0;" edge="1" parent="1" source="4lpDPO-DE4PUYxhVvUUK-20" target="4lpDPO-DE4PUYxhVvUUK-42">
          <mxGeometry relative="1" as="geometry" />
        </mxCell>
        <mxCell id="4lpDPO-DE4PUYxhVvUUK-20" value="Order" style="whiteSpace=wrap;html=1;align=center;" vertex="1" parent="1">
          <mxGeometry x="590" y="340" width="100" height="40" as="geometry" />
        </mxCell>
        <mxCell id="4lpDPO-DE4PUYxhVvUUK-21" value="unique &lt;br&gt;employee id" style="ellipse;whiteSpace=wrap;html=1;align=center;fontStyle=4;" vertex="1" parent="1">
          <mxGeometry x="270" y="100" width="100" height="40" as="geometry" />
        </mxCell>
        <mxCell id="4lpDPO-DE4PUYxhVvUUK-27" style="edgeStyle=orthogonalEdgeStyle;rounded=0;orthogonalLoop=1;jettySize=auto;html=1;exitX=0.5;exitY=0;exitDx=0;exitDy=0;entryX=0.5;entryY=1;entryDx=0;entryDy=0;" edge="1" parent="1" source="4lpDPO-DE4PUYxhVvUUK-23" target="4lpDPO-DE4PUYxhVvUUK-26">
          <mxGeometry relative="1" as="geometry" />
        </mxCell>
        <mxCell id="4lpDPO-DE4PUYxhVvUUK-28" style="edgeStyle=orthogonalEdgeStyle;rounded=0;orthogonalLoop=1;jettySize=auto;html=1;" edge="1" parent="1" source="4lpDPO-DE4PUYxhVvUUK-23" target="4lpDPO-DE4PUYxhVvUUK-25">
          <mxGeometry relative="1" as="geometry" />
        </mxCell>
        <mxCell id="4lpDPO-DE4PUYxhVvUUK-23" value="name" style="ellipse;whiteSpace=wrap;html=1;align=center;" vertex="1" parent="1">
          <mxGeometry x="110" y="100" width="100" height="40" as="geometry" />
        </mxCell>
        <mxCell id="4lpDPO-DE4PUYxhVvUUK-25" value="first name" style="ellipse;whiteSpace=wrap;html=1;align=center;" vertex="1" parent="1">
          <mxGeometry x="40" y="20" width="100" height="40" as="geometry" />
        </mxCell>
        <mxCell id="4lpDPO-DE4PUYxhVvUUK-26" value="last name" style="ellipse;whiteSpace=wrap;html=1;align=center;" vertex="1" parent="1">
          <mxGeometry x="170" y="20" width="100" height="40" as="geometry" />
        </mxCell>
        <mxCell id="4lpDPO-DE4PUYxhVvUUK-29" value="unique &lt;br&gt;customer id" style="ellipse;whiteSpace=wrap;html=1;align=center;fontStyle=4;" vertex="1" parent="1">
          <mxGeometry x="680" y="100" width="100" height="40" as="geometry" />
        </mxCell>
        <mxCell id="4lpDPO-DE4PUYxhVvUUK-31" style="edgeStyle=orthogonalEdgeStyle;rounded=0;orthogonalLoop=1;jettySize=auto;html=1;exitX=0.5;exitY=0;exitDx=0;exitDy=0;entryX=0.5;entryY=1;entryDx=0;entryDy=0;" edge="1" parent="1" source="4lpDPO-DE4PUYxhVvUUK-33" target="4lpDPO-DE4PUYxhVvUUK-35">
          <mxGeometry relative="1" as="geometry" />
        </mxCell>
        <mxCell id="4lpDPO-DE4PUYxhVvUUK-32" style="edgeStyle=orthogonalEdgeStyle;rounded=0;orthogonalLoop=1;jettySize=auto;html=1;" edge="1" parent="1" source="4lpDPO-DE4PUYxhVvUUK-33" target="4lpDPO-DE4PUYxhVvUUK-34">
          <mxGeometry relative="1" as="geometry" />
        </mxCell>
        <mxCell id="4lpDPO-DE4PUYxhVvUUK-33" value="name" style="ellipse;whiteSpace=wrap;html=1;align=center;" vertex="1" parent="1">
          <mxGeometry x="510" y="100" width="100" height="40" as="geometry" />
        </mxCell>
        <mxCell id="4lpDPO-DE4PUYxhVvUUK-34" value="first name" style="ellipse;whiteSpace=wrap;html=1;align=center;" vertex="1" parent="1">
          <mxGeometry x="440" y="20" width="100" height="40" as="geometry" />
        </mxCell>
        <mxCell id="4lpDPO-DE4PUYxhVvUUK-35" value="last name" style="ellipse;whiteSpace=wrap;html=1;align=center;" vertex="1" parent="1">
          <mxGeometry x="570" y="20" width="100" height="40" as="geometry" />
        </mxCell>
        <mxCell id="4lpDPO-DE4PUYxhVvUUK-38" value="unique &lt;br&gt;customer id" style="ellipse;whiteSpace=wrap;html=1;align=center;fontStyle=4;" vertex="1" parent="1">
          <mxGeometry x="33" y="470" width="100" height="40" as="geometry" />
        </mxCell>
        <mxCell id="4lpDPO-DE4PUYxhVvUUK-39" value="part name" style="ellipse;whiteSpace=wrap;html=1;align=center;" vertex="1" parent="1">
          <mxGeometry x="163" y="470" width="100" height="40" as="geometry" />
        </mxCell>
        <mxCell id="4lpDPO-DE4PUYxhVvUUK-40" value="price" style="ellipse;whiteSpace=wrap;html=1;align=center;" vertex="1" parent="1">
          <mxGeometry x="290" y="470" width="100" height="40" as="geometry" />
        </mxCell>
        <mxCell id="4lpDPO-DE4PUYxhVvUUK-41" value="quantity of &lt;br&gt;stock" style="ellipse;whiteSpace=wrap;html=1;align=center;" vertex="1" parent="1">
          <mxGeometry x="33" y="400" width="100" height="40" as="geometry" />
        </mxCell>
        <mxCell id="4lpDPO-DE4PUYxhVvUUK-42" value="unique &lt;br&gt;order id" style="ellipse;whiteSpace=wrap;html=1;align=center;fontStyle=4;" vertex="1" parent="1">
          <mxGeometry x="590" y="440" width="100" height="40" as="geometry" />
        </mxCell>
      </root>
    </mxGraphModel>
  </diagram>
</mxfile>
